# xmcd CD database file
#
# Track frame offsets:
#	150
#	12735
#	22897
#	40175
#	50207
#	67817
#	83467
#	100265
#	111715
#	123310
#	133432
#	145657
#	157957
#	172212
#	183635
#	197462
#	210320
#	222622
#	235917
#	247807
#	258662
#	271707
#	284232
#	297590
#	309330
#	319040
#
# Disc length: 4456 seconds
#
# Revision: 0
# Processed by: cddbd v1.4PL0 Copyright (c) Steve Scherf et al.
# Submitted via: CDex 1.50Beta6
#
DISCID=8f11661a
DTITLE=Little Johnny Taylor - The Galaxy Years
DYEAR=1900
DGENRE=Blues
TTITLE0=You'll Need Another Favor
TTITLE1=What You Need Is A Ball
TTITLE2=Part Time Love
TTITLE3=Somewhere Down The Line
TTITLE4=Since I Found A New Love
TTITLE5=My Heart Is Filled With Pain
TTITLE6=First Class Love
TTITLE7=If You Love Me (Like You Say)
TTITLE8=You Win, I Lose
TTITLE9=Nightingale Melody
TTITLE10=I Smell Trouble
TTITLE11=True Love
TTITLE12=For Your Precious Love
TTITLE13=I've Never Had A Woman Like You Before
TTITLE14=Somebody's Got To Pay
TTITLE15=Help Yourself
TTITLE16=One More Chance
TTITLE17=Please Come Home For Christmas
TTITLE18=All I Want Is You
TTITLE19=Zig Zag Lightning
TTITLE20=The Things That I Used To Do
TTITLE21=Big Blue Diamonds
TTITLE22=I Know You Hear Me Calling
TTITLE23=Driving Wheel
TTITLE24=Sometimey Woman
TTITLE25=Double Or Nothing
EXTD=
EXTT0=
EXTT1=
EXTT2=
EXTT3=
EXTT4=
EXTT5=
EXTT6=
EXTT7=
EXTT8=
EXTT9=
EXTT10=
EXTT11=
EXTT12=
EXTT13=
EXTT14=
EXTT15=
EXTT16=
EXTT17=
EXTT18=
EXTT19=
EXTT20=
EXTT21=
EXTT22=
EXTT23=
EXTT24=
EXTT25=
PLAYORDER=
